HIERARCHY
ROOT SpineBase
{
  OFFSET 0.000000 0.000000 0.000000
  CHANNELS 6 Xposition Yposition Zposition Zrotation Xrotation Yrotation
  JOINT SpineMid
  {
    OFFSET -0.000000 33.572804 0.000000
    CHANNELS 3 Zrotation Xrotation Yrotation
    JOINT SpineShoulder
    {
      OFFSET -0.153263 25.154038 -1.197432
      CHANNELS 3 Zrotation Xrotation Yrotation
      JOINT Neck
      {
        OFFSET -0.171774 8.345568 -0.734540
        CHANNELS 3 Zrotation Xrotation Yrotation
        JOINT Head
        {
          OFFSET -5.280816 12.238915 4.732434
          CHANNELS 3 Zrotation Xrotation Yrotation
          End Site
          {
            OFFSET 0 0 0
          }
        }
      }
      JOINT ShoulderLeft
      {
        OFFSET -15.264982 -6.799924 -10.911668
        CHANNELS 3 Zrotation Xrotation Yrotation
        JOINT ElbowLeft
        {
          OFFSET -2.164954 -26.635320 -11.647929
          CHANNELS 3 Zrotation Xrotation Yrotation
          JOINT WristLeft
          {
            OFFSET -5.266526 -21.418191 1.500197
            CHANNELS 3 Zrotation Xrotation Yrotation
            JOINT HandLeft
            {
              OFFSET 3.350706 -5.326792 0.255034
              CHANNELS 3 Zrotation Xrotation Yrotation
              JOINT HandTipLeft
              {
                OFFSET -1.014503 -5.617119 2.267017
                CHANNELS 3 Zrotation Xrotation Yrotation
                End Site
                {
                  OFFSET 0 0 0
                }
              }
              JOINT ThumbLeft
              {
                OFFSET 2.331271 1.506470 -3.543906
                CHANNELS 3 Zrotation Xrotation Yrotation
                End Site
                {
                  OFFSET 0 0 0
                }
              }
            }
          }
        }
      }
      JOINT ShoulderRight
      {
        OFFSET 2.919106 -5.492868 -13.438250
        CHANNELS 3 Zrotation Xrotation Yrotation
        JOINT ElbowRight
        {
          OFFSET -8.666156 -25.598730 -8.622303
          CHANNELS 3 Zrotation Xrotation Yrotation
          JOINT WristRight
          {
            OFFSET -9.032351 -20.698152 -0.294031
            CHANNELS 3 Zrotation Xrotation Yrotation
            JOINT HandRight
            {
              OFFSET -3.326510 -6.601725 1.375218
              CHANNELS 3 Zrotation Xrotation Yrotation
              JOINT HandTipRight
              {
                OFFSET -2.005562 -6.231173 0.756907
                CHANNELS 3 Zrotation Xrotation Yrotation
                End Site
                {
                  OFFSET 0 0 0
                }
              }
              JOINT ThumbRight
              {
                OFFSET -1.343270 -0.644637 -3.795953
                CHANNELS 3 Zrotation Xrotation Yrotation
                End Site
                {
                  OFFSET 0 0 0
                }
              }
            }
          }
        }
      }
    }
  }
  JOINT HipLeft
  {
    OFFSET -6.696045 1.011613 -0.015917
    CHANNELS 3 Zrotation Xrotation Yrotation
    JOINT KneeLeft
    {
      OFFSET -7.330626 -36.967871 -11.222695
      CHANNELS 3 Zrotation Xrotation Yrotation
      JOINT AnkleLeft
      {
        OFFSET 12.413050 -31.010718 15.041655
        CHANNELS 3 Zrotation Xrotation Yrotation
        JOINT FootLeft
        {
          OFFSET -4.645501 -3.024373 -11.593592
          CHANNELS 3 Zrotation Xrotation Yrotation
          End Site
          {
            OFFSET 0 0 0
          }
        }
      }
    }
  }
  JOINT HipRight
  {
    OFFSET 6.699851 1.226166 -7.586823
    CHANNELS 3 Zrotation Xrotation Yrotation
    JOINT KneeRight
    {
      OFFSET -7.340756 -35.292982 9.500918
      CHANNELS 3 Zrotation Xrotation Yrotation
      JOINT AnkleRight
      {
        OFFSET -11.618366 -32.516428 -13.484068
        CHANNELS 3 Zrotation Xrotation Yrotation
        JOINT FootRight
        {
          OFFSET -6.445883 -6.291821 -1.767811
          CHANNELS 3 Zrotation Xrotation Yrotation
          End Site
          {
            OFFSET 0 0 0
          }
        }
      }
    }
  }
}
MOTION
Frames: 13
Frame Time: 0.033333
13.934211 71.164005 294.778411 -0.734692 0.902613 30.937710 0.142270 0.748834 -30.967992 -0.707712 -0.233589 -0.097596 2.789320 7.638005 3.439209 0.000000 0.000000 0.000000 6.682966 -6.959408 -1.242235 -4.555725 6.875004 1.624653 -20.133383 -22.198871 -19.713123 16.944899 49.714760 9.459382 0.000000 0.000000 0.000000 0.000000 0.000000 0.000000 -4.555297 -1.460756 2.084233 8.797492 -0.710900 -1.902561 14.089158 -3.034375 5.856568 -19.118510 12.670056 -7.266924 0.000000 0.000000 0.000000 0.000000 0.000000 0.000000 4.187910 -10.602773 -31.867262 -21.658617 24.711897 7.854579 -0.761481 -3.483784 10.224550 0.000000 0.000000 0.000000 -4.858243 26.501635 -39.480858 45.908684 -27.131214 20.171649 -7.271239 40.601174 -31.263210 0.000000 0.000000 0.000000
14.076575 71.202334 295.001701 -0.762182 0.931485 30.936636 0.132857 0.739521 -30.967812 -0.710396 -0.245562 -0.099481 2.602624 7.963523 3.671025 0.000000 0.000000 0.000000 7.668937 -7.400236 -1.537819 -5.561804 7.241163 2.083491 -17.314939 -21.958402 -18.404696 15.228546 49.406190 9.201234 0.000000 0.000000 0.000000 0.000000 0.000000 0.000000 -4.431554 -1.341033 2.024617 8.933634 -0.722328 -1.870264 14.210374 -2.686324 5.728994 -18.258388 12.117814 -7.231550 0.000000 0.000000 0.000000 0.000000 0.000000 0.000000 4.128540 -10.366369 -31.857558 -21.363656 24.586152 7.800856 -1.540032 -2.832122 10.941987 0.000000 0.000000 0.000000 -5.067580 26.334941 -39.416864 45.531676 -26.673195 19.757324 -5.040399 42.167404 -35.237837 0.000000 0.000000 0.000000
14.207824 71.258124 295.213679 -0.827278 0.969203 30.954273 0.111431 0.792447 -30.989234 -0.730653 -0.229877 -0.105175 2.109377 7.804789 3.931994 0.000000 0.000000 0.000000 9.170170 -7.779849 -1.980856 -7.103452 7.289415 2.795060 -14.447403 -21.893370 -17.405610 17.444839 49.765671 7.941618 0.000000 0.000000 0.000000 0.000000 0.000000 0.000000 -4.340215 -1.422858 2.038239 9.180893 -0.493450 -1.995663 13.836396 -2.702457 5.718652 -16.728560 11.590288 -7.112887 0.000000 0.000000 0.000000 0.000000 0.000000 0.000000 4.071644 -10.173906 -31.857210 -21.145649 24.540170 7.763965 -1.797689 -2.636547 11.148113 0.000000 0.000000 0.000000 -5.153367 26.070630 -39.365428 45.225786 -26.113360 19.228818 -4.372591 41.762801 -35.828597 0.000000 0.000000 0.000000
14.273789 71.323177 295.441579 -0.900840 0.936044 30.732454 0.095859 0.898786 -30.772618 -0.745871 -0.191611 -0.110795 1.015705 7.366096 4.355228 0.000000 0.000000 0.000000 11.060966 -8.084136 -2.558435 -9.122441 7.061877 3.727897 -10.529860 -21.815255 -16.197702 22.418438 49.810151 5.865658 0.000000 0.000000 0.000000 0.000000 0.000000 0.000000 -4.236638 -1.428827 2.034885 9.324290 -0.388742 -2.064579 12.498775 -2.483627 5.240123 -14.072693 10.531149 -6.625150 0.000000 0.000000 0.000000 0.000000 0.000000 0.000000 4.190959 -10.045444 -31.636175 -21.153838 24.588884 7.807040 -2.079257 -2.680716 11.662078 0.000000 0.000000 0.000000 -4.931751 25.329890 -38.936256 43.669426 -25.282673 18.059032 -4.831059 39.341584 -33.302182 0.000000 0.000000 0.000000
14.334522 71.390795 295.522377 -1.025787 1.067161 30.942033 0.010391 0.930422 -30.989572 -0.795647 -0.139047 -0.122241 -0.308830 6.673624 4.856267 0.000000 0.000000 0.000000 12.948104 -8.407649 -3.065864 -11.046800 5.958396 4.788382 -7.398486 -20.211384 -14.919524 21.179541 49.113669 5.523644 0.000000 0.000000 0.000000 0.000000 0.000000 0.000000 -4.076762 -1.479488 2.043256 9.342568 -0.376280 -2.106409 10.793743 -2.122017 4.519504 -11.585868 10.901109 -6.468995 0.000000 0.000000 0.000000 0.000000 0.000000 0.000000 4.129003 -10.142974 -31.819511 -20.961980 24.613289 7.814639 -2.159610 -3.041166 11.894504 0.000000 0.000000 0.000000 -4.691130 24.621043 -39.026599 43.027940 -24.609987 17.223263 -8.704098 31.806066 -22.190148 0.000000 0.000000 0.000000
14.441441 71.508486 295.377640 -1.147925 1.379320 31.350041 -0.047813 0.923568 -31.400919 -0.842505 -0.105678 -0.131126 -1.913735 5.785059 5.405940 0.000000 0.000000 0.000000 14.565319 -8.724935 -3.479620 -12.483050 5.761047 5.469368 -9.526677 -16.706074 -12.978690 27.577778 45.530642 3.178502 0.000000 0.000000 0.000000 0.000000 0.000000 0.000000 -4.018971 -1.548769 2.013734 9.285505 -0.756013 -1.982470 8.287372 -1.233038 3.244080 -9.109860 9.703364 -5.511929 0.000000 0.000000 0.000000 0.000000 0.000000 0.000000 3.692254 -10.045508 -32.143948 -19.999466 24.125639 7.478662 -2.179334 -3.536971 12.160743 0.000000 0.000000 0.000000 -5.334189 24.577332 -39.494684 45.051049 -24.628893 17.685194 -11.870744 27.323787 -14.606787 0.000000 0.000000 0.000000
14.503515 71.646452 295.012673 -1.309470 2.006076 32.141875 -0.103246 0.888028 -32.192568 -0.920818 -0.089767 -0.143607 -2.812900 5.294859 5.938550 0.000000 0.000000 0.000000 15.654862 -9.709298 -3.519769 -13.323437 6.061892 5.871370 -7.798580 -13.181635 -9.952294 28.789221 40.747223 2.343502 0.000000 0.000000 0.000000 0.000000 0.000000 0.000000 -3.682200 -1.735222 1.854475 8.760478 -1.400329 -1.659964 8.610325 -1.149856 3.145661 -8.941494 9.063930 -5.280226 0.000000 0.000000 0.000000 0.000000 0.000000 0.000000 2.943183 -9.921949 -32.821886 -18.865167 23.225527 6.863674 -2.058937 -3.586230 12.479095 0.000000 0.000000 0.000000 -5.820962 23.385902 -40.160222 45.076225 -24.797394 17.628655 -9.013952 27.609364 -16.229465 0.000000 0.000000 0.000000
14.602384 71.792212 294.467720 -1.634753 2.495535 33.041240 -0.189148 0.774353 -33.096230 -0.960944 -0.111034 -0.161455 -3.450124 4.965100 6.385144 0.000000 0.000000 0.000000 15.794074 -10.368235 -3.243801 -13.068679 6.476605 5.754670 -7.134280 -11.497372 -8.597799 27.472925 38.791262 2.062277 0.000000 0.000000 0.000000 0.000000 0.000000 0.000000 -3.351890 -1.964205 1.855141 8.215202 -1.610909 -1.581597 10.276828 -1.801687 3.802501 -9.814187 8.491019 -5.330147 0.000000 0.000000 0.000000 0.000000 0.000000 0.000000 2.782396 -11.255056 -33.670758 -19.719897 23.582425 6.825327 -0.986339 -3.764567 11.874656 0.000000 0.000000 0.000000 -5.977494 22.925050 -41.143400 45.899158 -25.013137 17.980408 -7.256192 32.760001 -23.023232 0.000000 0.000000 0.000000
14.642514 71.883366 293.855051 -2.030814 3.086989 33.783808 -0.324242 0.631845 -33.843331 -0.972683 -0.135382 -0.179931 -3.552196 4.887524 6.767822 0.000000 0.000000 0.000000 16.254977 -10.264814 -3.189700 -13.029328 6.026917 5.731036 -8.719986 -10.482851 -8.175133 28.441691 37.083243 2.047722 0.000000 0.000000 0.000000 0.000000 0.000000 0.000000 -3.105471 -2.159562 1.876881 7.906439 -1.580039 -1.665871 13.620206 -2.539573 5.024314 -13.886550 7.833565 -5.582355 0.000000 0.000000 0.000000 0.000000 0.000000 0.000000 2.883854 -13.803524 -34.391038 -21.561782 24.337659 7.022260 -0.119491 -2.177557 10.414312 0.000000 0.000000 0.000000 -5.983884 22.854890 -42.140018 47.327710 -25.082023 18.489220 -5.286840 40.548934 -33.650629 0.000000 0.000000 0.000000
14.834238 71.826173 292.898541 -2.632419 3.044815 34.666687 -0.198184 0.625755 -34.729320 -0.934420 -0.163849 -0.197761 -3.315878 4.957326 6.945313 0.000000 0.000000 0.000000 15.901177 -10.513919 -2.813809 -12.192376 6.443232 5.335062 -8.817273 -8.519401 -6.745493 29.524700 36.391563 0.905310 0.000000 0.000000 0.000000 0.000000 0.000000 0.000000 -3.263828 -2.083180 2.086221 7.310462 -1.462308 -1.926980 16.851024 -3.155109 6.001876 -15.707779 7.231216 -5.682414 0.000000 0.000000 0.000000 0.000000 0.000000 0.000000 3.298018 -16.776062 -35.231319 -23.256381 25.217213 7.276070 0.615547 0.653391 7.520974 0.000000 0.000000 0.000000 -4.393002 23.895167 -43.539748 49.055390 -24.948751 19.080957 -2.990319 43.909453 -41.050137 0.000000 0.000000 0.000000
15.243066 71.699101 291.867225 -3.191605 2.559425 35.306376 -0.025267 0.586843 -35.380812 -0.863543 -0.217935 -0.212182 -2.646203 5.552183 6.939919 0.000000 0.000000 0.000000 14.275468 -11.168078 -2.033082 -9.655031 8.504811 4.194136 -9.192420 -8.666919 -6.361635 29.437458 37.762525 -0.033443 0.000000 0.000000 0.000000 0.000000 0.000000 0.000000 -3.940403 -1.600700 2.460275 8.306677 -1.553736 -2.228639 18.417686 -3.546117 6.731853 -18.115902 7.823270 -6.069935 0.000000 0.000000 0.000000 0.000000 0.000000 0.000000 3.634779 -19.622624 -35.812081 -24.441873 26.162109 7.481948 1.132906 4.727042 3.474833 0.000000 0.000000 0.000000 -1.705918 25.927173 -45.016762 51.287425 -24.621308 19.871488 -2.925355 43.316399 -43.029863 0.000000 0.000000 0.000000
15.641980 71.581991 290.377350 -3.817944 2.113625 36.345853 0.037398 0.488718 -36.445370 -0.782954 -0.280959 -0.232870 -1.901681 5.087719 6.430212 0.000000 0.000000 0.000000 12.735860 -11.582523 -1.273167 -8.161081 9.077653 3.347914 -10.234094 -8.994232 -7.344121 30.428378 40.226631 -0.426293 0.000000 0.000000 0.000000 0.000000 0.000000 0.000000 -4.502330 -1.310472 2.940570 8.843434 -2.615682 -2.111307 19.679853 -1.743538 5.480326 -19.188236 7.254534 -6.016808 0.000000 0.000000 0.000000 0.000000 0.000000 0.000000 3.748511 -22.676335 -36.853064 -25.247626 26.975693 7.677802 1.240217 9.099349 -0.481951 0.000000 0.000000 0.000000 2.003149 27.262615 -46.956416 52.664850 -23.382974 19.513162 -10.051553 42.338585 -38.871977 0.000000 0.000000 0.000000
16.623676 71.267606 289.106586 -4.119088 0.468906 36.149523 0.205017 0.475812 -36.311639 -0.877023 -0.196111 -0.255060 -2.763768 3.865470 5.808904 0.000000 0.000000 0.000000 10.908747 -13.170301 -0.335890 -7.542146 11.948503 2.453710 -12.295393 -10.183664 -9.097073 31.564196 43.380711 -0.519091 0.000000 0.000000 0.000000 0.000000 0.000000 0.000000 -5.641846 -0.528540 3.771061 9.457572 -2.913954 -2.467051 19.522171 -1.500818 4.919847 -19.078424 8.172036 -6.171470 0.000000 0.000000 0.000000 0.000000 0.000000 0.000000 4.578296 -23.941019 -36.680539 -25.329387 27.479613 7.639969 2.013934 11.986643 -4.952937 0.000000 0.000000 0.000000 6.521559 30.346432 -48.145610 53.589855 -22.450022 19.691181 -20.097477 39.507030 -31.095102 0.000000 0.000000 0.000000
